<?xml version="1.0" encoding="UTF-8"?>
<svg width="32px" height="32px" viewBox="0 0 32 32" version="1.1" xmlns="http://www.w3.org/2000/svg" xmlns:xlink="http://www.w3.org/1999/xlink">
    <!-- Generator: Sketch 47 (45396) - http://www.bohemiancoding.com/sketch -->
    <title>Shape</title>
    <desc>Created with Sketch.</desc>
    <defs></defs>
    <g id="version-02" stroke="none" stroke-width="1" fill="none" fill-rule="evenodd">
        <g id="MSL-design-comp-v02_1440-01" transform="translate(-1192.000000, -84.000000)" fill-rule="nonzero" fill="#FFFFFF">
            <g id="header" transform="translate(691.000000, 78.000000)">
                <path d="M532.618838,15.2845699 C532.900103,15.6543382 533.005462,16.0980601 532.935261,16.6157356 L531.599256,24.6767441 C531.552378,25.0959356 531.370671,25.4409318 531.054306,25.7120952 C530.737884,25.9832586 530.380501,26.1188403 529.981986,26.1188403 L510.602365,25.3203757 L509.845388,28.6748327 L529.327672,28.6748327 C529.773007,28.6748327 530.41291,28.9869652 530.411515,29.7958598 C530.410121,30.6047544 529.891803,31.0065186 529.327672,31.0065186 L508.374263,31.0065186 C507.88205,31.0065186 507.752297,30.9837071 507.400716,30.5648177 C507.072575,30.1456262 507.129267,29.9076553 507.199583,29.3655098 L508.563725,23.9713979 L506.856771,10.0121134 L501.599222,8.26890545 C501.390321,8.19046555 500.721168,7.69165246 501.129497,6.69416542 C501.537827,5.69667839 502.773674,6.03933971 503.052473,6.13255817 C503.238339,6.1947038 504.873942,6.72193544 507.959282,7.71425306 C508.263985,7.81285793 508.515951,7.99774206 508.715179,8.26890545 C508.914408,8.54006884 509.048289,8.81778249 509.095166,9.16289953 L509.376431,11.9731383 L531.493781,14.5821915 C531.985994,14.6559639 532.361013,14.8901504 532.618838,15.2845699 Z M509.66159,13.9980932 L510.753805,23.297881 L529.573473,24.1079451 L530.797677,16.6214476 L509.66159,13.9980932 Z M511.413332,33.0065186 C512.104934,33.0065186 512.692796,33.2478925 513.176917,33.7307529 C513.661039,34.2133316 513.903099,34.7996943 513.903099,35.4893339 C513.903099,36.1788045 513.661039,36.7709142 513.176917,37.265156 C512.692796,37.7593977 512.104934,38.0065186 511.413332,38.0065186 C510.721731,38.0065186 510.133869,37.7593977 509.649748,37.265156 C509.165626,36.7709706 508.923566,36.1789736 508.923566,35.4893339 C508.923566,34.7996943 509.165626,34.2133879 509.649748,33.7307529 C510.133812,33.2478925 510.721674,33.0065186 511.413332,33.0065186 Z M526.351962,33.0065186 C527.043428,33.0065186 527.631439,33.2478925 528.115544,33.7307529 C528.599422,34.2133316 528.841701,34.7996943 528.841701,35.4893339 C528.841701,36.1788045 528.599592,36.7709142 528.115544,37.265156 C527.631439,37.7593977 527.043428,38.0065186 526.351962,38.0065186 C525.660384,38.0065186 525.072429,37.7593977 524.588494,37.265156 C524.104389,36.7709706 523.862167,36.1789736 523.862167,35.4893339 C523.862167,34.7996943 524.104276,34.2133879 524.588494,33.7307529 C525.072542,33.2478925 525.660384,33.0065186 526.351962,33.0065186 Z" id="Shape"></path>
            </g>
        </g>
    </g>
</svg>